<svg width="168" height="39" viewBox="0 0 168 39" fill="none" xmlns="http://www.w3.org/2000/svg">
<g clip-path="url(#clip0_1028_13385)">
<path d="M48.8214 1.18945H46.5241H40.4126V37.7482H46.5241H48.8214H64.4882V30.0184H48.8214V23.0735H61.7191V15.6039H48.8214V8.91922H64.228V1.18945H48.8214Z" fill="#173049"/>
<path d="M91.4872 23.9338C93.5597 22.9064 95.1868 21.4689 96.3685 19.6258C97.5502 17.7826 98.1455 15.6749 98.1455 13.3071C98.1455 10.9392 97.5635 8.83146 96.395 6.98831C95.2264 5.14516 93.617 3.69886 91.5622 2.65382C89.5074 1.60878 87.1572 1.10611 84.5115 1.14138L77.4608 1.1943H70.1543V37.753H78.5631V25.4771H83.0255L90.0013 37.7486H99.6094L91.3329 24.0044C91.3858 23.9823 91.4387 23.9603 91.4872 23.9338ZM78.5631 8.86674H84.097C85.6624 8.86674 86.9235 9.28563 87.8847 10.119C88.8416 10.9524 89.3222 12.0151 89.3222 13.3026C89.3222 14.1404 89.1061 14.8945 88.6696 15.5735C88.2331 16.2526 87.6334 16.7817 86.8705 17.1653C86.1033 17.5489 85.2346 17.7386 84.2601 17.7386H78.5675V8.86674H78.5631Z" fill="#173049"/>
<path d="M111.806 1.18945H103.397V37.7438H111.806V1.18945Z" fill="#173049"/>
<path d="M25.685 27.7218C24.8649 28.661 23.8992 29.393 22.788 29.9133C21.6724 30.4336 20.4025 30.6982 18.9739 30.6982C17.0249 30.6982 15.292 30.2219 13.7795 29.2607C12.2627 28.3038 11.0809 26.981 10.2299 25.2922C9.37448 23.6033 8.95118 21.6632 8.95118 19.4673C8.95118 17.2714 9.37007 15.3312 10.2035 13.6424C11.0368 11.9536 12.2053 10.6396 13.7002 9.70036C15.1994 8.76115 16.9014 8.28933 18.8195 8.28933C20.1776 8.28933 21.4211 8.53185 22.5543 9.0213C23.6831 9.51075 24.6973 10.203 25.5836 11.1114C26.4699 12.0153 27.1754 13.078 27.7002 14.295L35.5842 11.6317C34.7156 9.4402 33.4677 7.50445 31.8494 5.83327C30.2312 4.16209 28.3175 2.86571 26.1039 1.94414C23.8904 1.02256 21.4652 0.55957 18.8195 0.55957C15.1994 0.55957 12.0025 1.3665 9.23779 2.98918C6.46866 4.60744 4.2948 6.83422 2.71181 9.6739C1.12881 12.5136 0.335114 15.7766 0.335114 19.4673C0.335114 23.158 1.12881 26.421 2.71181 29.2607C4.2948 32.1004 6.47307 34.3271 9.23779 35.9454C12.0069 37.5637 15.1994 38.375 18.8195 38.375C21.5005 38.375 23.9565 37.9076 26.1833 36.964C28.4101 36.0248 30.3414 34.7108 31.9817 33.0219C33.6176 31.3331 34.8523 29.3753 35.6901 27.1485L27.806 24.4852C27.2063 25.7022 26.5008 26.7826 25.685 27.7218Z" fill="#173049"/>
<path d="M148.973 37.7974L158.374 37.8106L167.718 1.13281H158.348L148.973 37.7974Z" fill="#3D7CC9"/>
<path d="M151.081 1.13281H126.93L124.796 9.14478H148.837L151.081 1.13281Z" fill="#3D7CC9"/>
<path d="M145.604 23.4793L147.844 15.4629H123.112L120.982 23.466L145.604 23.4793Z" fill="#3D7CC9"/>
<path d="M126.375 37.8108L128.619 29.7988H119.293L117.163 37.7976L126.375 37.8108Z" fill="#3D7CC9"/>
</g>
<defs>
<clipPath id="clip0_1028_13385">
<rect width="168" height="38.3622" fill="white" transform="translate(0 0.193359)"/>
</clipPath>
</defs>
</svg>
